<svg width="32" height="33" viewBox="0 0 32 33" fill="none" xmlns="http://www.w3.org/2000/svg">
<rect y="0.926025" width="32" height="32" rx="6" fill="#FF5900"/>
<path d="M9.93555 22.5725C9.2666 22.5725 8.66602 22.4456 8.13379 22.1917C7.60645 21.9329 7.18408 21.5789 6.8667 21.1296C6.54932 20.6755 6.38086 20.1604 6.36133 19.5842H7.95801C7.99707 20.0481 8.20459 20.4314 8.58057 20.7341C8.95654 21.0369 9.4082 21.1882 9.93555 21.1882C10.3555 21.1882 10.7266 21.0906 11.0488 20.8953C11.3711 20.7 11.625 20.4338 11.8105 20.0969C11.9961 19.7551 12.0889 19.3645 12.0889 18.925C12.0889 18.4856 11.9937 18.0925 11.8032 17.7458C11.6128 17.3943 11.3491 17.1184 11.0122 16.9182C10.6802 16.718 10.2969 16.6179 9.8623 16.6179C9.53027 16.6179 9.19824 16.6765 8.86621 16.7937C8.53418 16.906 8.26562 17.0525 8.06055 17.2332L6.54443 17.0134L7.15967 11.5129H13.1582V12.9265H8.53662L8.19238 15.9807H8.25098C8.46094 15.7708 8.7417 15.5999 9.09326 15.468C9.44971 15.3313 9.83301 15.2629 10.2432 15.2629C10.9072 15.2629 11.498 15.4216 12.0156 15.739C12.5381 16.0515 12.9482 16.4812 13.2461 17.0281C13.5439 17.5701 13.6929 18.1926 13.6929 18.8958C13.6929 19.6038 13.5317 20.2361 13.2095 20.7927C12.8872 21.3445 12.4429 21.7791 11.8765 22.0964C11.3149 22.4138 10.668 22.5725 9.93555 22.5725ZM15.7803 22.5286C15.4824 22.5286 15.2285 22.426 15.0186 22.2209C14.8135 22.0159 14.7109 21.7644 14.7109 21.4666C14.7109 21.1687 14.8135 20.9172 15.0186 20.7122C15.2285 20.5071 15.4824 20.4045 15.7803 20.4045C16.0781 20.4045 16.3296 20.5071 16.5347 20.7122C16.7446 20.9172 16.8496 21.1687 16.8496 21.4666C16.8496 21.7644 16.7446 22.0159 16.5347 22.2209C16.3296 22.426 16.0781 22.5286 15.7803 22.5286ZM21.8594 22.5725C21.0195 22.5725 20.2993 22.3528 19.6987 21.9133C19.103 21.4739 18.6465 20.8391 18.3291 20.009C18.0166 19.1741 17.8604 18.1633 17.8604 16.9768C17.8604 15.7952 18.019 14.7869 18.3364 13.9519C18.6538 13.1121 19.1104 12.4724 19.7061 12.033C20.3066 11.5886 21.0244 11.3665 21.8594 11.3665C22.6992 11.3665 23.417 11.5886 24.0127 12.033C24.6133 12.4724 25.0698 13.1121 25.3823 13.9519C25.6997 14.7869 25.8584 15.7952 25.8584 16.9768C25.8584 18.1633 25.7021 19.1741 25.3896 20.009C25.0771 20.8391 24.623 21.4739 24.0273 21.9133C23.4316 22.3528 22.709 22.5725 21.8594 22.5725ZM21.8594 21.1663C22.3721 21.1663 22.8042 21.0027 23.1558 20.6755C23.5073 20.3484 23.7759 19.8723 23.9614 19.2473C24.147 18.6174 24.2397 17.8606 24.2397 16.9768C24.2397 16.0881 24.147 15.3313 23.9614 14.7063C23.7759 14.0764 23.5073 13.5979 23.1558 13.2708C22.8042 12.9387 22.3721 12.7727 21.8594 12.7727C21.1025 12.7727 20.5166 13.1414 20.1016 13.8787C19.6914 14.6111 19.4863 15.6438 19.4863 16.9768C19.4863 17.8606 19.5791 18.6174 19.7646 19.2473C19.9502 19.8723 20.2188 20.3484 20.5703 20.6755C20.9268 21.0027 21.3564 21.1663 21.8594 21.1663Z" fill="white"/>
</svg>
